G04 ================== begin FILE IDENTIFICATION RECORD ==================*
G04 Layout Name:  PCB_ZANFIRA_DAN.brd*
G04 Film Name:    BOTTOM*
G04 File Format:  Gerber RS274X*
G04 File Origin:  Cadence Allegro 17.2-S025*
G04 Origin Date:  Sat Jan 24 21:40:15 2026*
G04 *
G04 Layer:  ETCH/BOTTOM*
G04 Layer:  PIN/BOTTOM*
G04 Layer:  VIA CLASS/BOTTOM*
G04 *
G04 Offset:    (0.00 0.00)*
G04 Mirror:    No*
G04 Mode:      Positive*
G04 Rotation:  0*
G04 FullContactRelief:  No*
G04 UndefLineWidth:     0.01*
G04 ================== end FILE IDENTIFICATION RECORD ====================*
%FSLAX25Y25*MOIN*%
%IR0*IPPOS*OFA0.00000B0.00000*MIA0B0*SFA1.00000B1.00000*%
%ADD10C,.026*%
%ADD11C,.016*%
%ADD12C,.07878*%
G75*
%LPD*%
G75*
G36*
G01X149499Y149499D02*
Y8001D01*
X8001D01*
Y149499D01*
X149499D01*
G37*
%LPC*%
G75*
G36*
G01X36302Y85754D02*
Y75246D01*
G02X33698I-1302J-1246D01*
G01Y85754D01*
G02X36302I1302J1246D01*
G37*
G36*
G01X97084Y67536D02*
Y59246D01*
G02X94480I-1302J-1246D01*
G01Y67536D01*
G02X97084I1302J1246D01*
G37*
G36*
G01X66238Y96817D02*
Y89310D01*
G02X63636I-1301J-1247D01*
G01Y96817D01*
G02X66238I1301J1246D01*
G37*
G36*
G01X128539Y117302D02*
X130037Y115803D01*
X130113Y115798D01*
G02X128202Y113887I-113J-1798D01*
G01X128197Y113963D01*
X127461Y114698D01*
X119246D01*
G02Y117302I-1246J1302D01*
G01X128539D01*
G37*
G54D12*
X137000Y138000D03*
X20000Y20000D03*
%LPD*%
G75*
G54D10*
X35000Y74000D03*
Y87000D03*
X64937Y88063D03*
Y98063D03*
X65000Y131000D03*
X95782Y58000D03*
Y68782D03*
X84300Y134700D03*
X118000Y116000D03*
X130000Y114000D03*
G54D11*
G01X35000Y74000D02*
Y87000D01*
G01X64937Y98063D02*
Y88063D01*
G01X65000Y131000D02*
X80000D01*
G01X95782Y58000D02*
Y68782D01*
G01X80000Y131000D02*
X80600D01*
G01D02*
X84300Y134700D01*
G01X118000Y116000D02*
X128000D01*
X130000Y114000D01*
M02*
