G04 ================== begin FILE IDENTIFICATION RECORD ==================*
G04 Layout Name:  PCB_ZANFIRA_DAN.brd*
G04 Film Name:    FAB*
G04 File Format:  Gerber RS274X*
G04 File Origin:  Cadence Allegro 17.2-S025*
G04 Origin Date:  Sat Jan 24 21:40:15 2026*
G04 *
G04 Layer:  MANUFACTURING/NCLEGEND-1-2*
G04 Layer:  MANUFACTURING/NCDRILL_LEGEND*
G04 Layer:  MANUFACTURING/NCDRILL_FIGURE*
G04 Layer:  DRAWING FORMAT/DRAWING_ORIGIN*
G04 Layer:  BOARD GEOMETRY/OUTLINE*
G04 Layer:  BOARD GEOMETRY/MECANIC*
G04 *
G04 Offset:    (0.00 0.00)*
G04 Mirror:    No*
G04 Mode:      Positive*
G04 Rotation:  0*
G04 FullContactRelief:  No*
G04 UndefLineWidth:     0.01*
G04 ================== end FILE IDENTIFICATION RECORD ====================*
%FSLAX25Y25*MOIN*%
%IR0*IPPOS*OFA0.00000B0.00000*MIA0B0*SFA1.00000B1.00000*%
%AMMACRO10*
1,1,.00001,.025,0.0*
20,1,.00001,.025,0.0,-.025,0.0,0.0*
1,1,.00001,-.025,0.0*
1,1,.00001,0.0,.025*
20,1,.00001,0.0,.025,0.0,-.025,0.0*
1,1,.00001,0.0,-.025*
%
%ADD10MACRO10*%
%AMMACRO11*
1,1,.00001,.025,0.0*
20,1,.00001,.025,0.0,.02462,-.004341,0.0*
1,1,.00001,.02462,-.004341*
20,1,.00001,.02462,-.004341,.023492,-.008551,0.0*
1,1,.00001,.023492,-.008551*
20,1,.00001,.023492,-.008551,.021651,-.0125,0.0*
1,1,.00001,.021651,-.0125*
20,1,.00001,.021651,-.0125,.019151,-.01607,0.0*
1,1,.00001,.019151,-.01607*
20,1,.00001,.019151,-.01607,.01607,-.019151,0.0*
1,1,.00001,.01607,-.019151*
20,1,.00001,.01607,-.019151,.0125,-.021651,0.0*
1,1,.00001,.0125,-.021651*
20,1,.00001,.0125,-.021651,.008551,-.023492,0.0*
1,1,.00001,.008551,-.023492*
20,1,.00001,.008551,-.023492,.004341,-.02462,0.0*
1,1,.00001,.004341,-.02462*
20,1,.00001,.004341,-.02462,0.0,-.025,0.0*
1,1,.00001,0.0,-.025*
20,1,.00001,0.0,-.025,-.004341,-.02462,0.0*
1,1,.00001,-.004341,-.02462*
20,1,.00001,-.004341,-.02462,-.008551,-.023492,0.0*
1,1,.00001,-.008551,-.023492*
20,1,.00001,-.008551,-.023492,-.0125,-.021651,0.0*
1,1,.00001,-.0125,-.021651*
20,1,.00001,-.0125,-.021651,-.01607,-.019151,0.0*
1,1,.00001,-.01607,-.019151*
20,1,.00001,-.01607,-.019151,-.019151,-.01607,0.0*
1,1,.00001,-.019151,-.01607*
20,1,.00001,-.019151,-.01607,-.021651,-.0125,0.0*
1,1,.00001,-.021651,-.0125*
20,1,.00001,-.021651,-.0125,-.023492,-.008551,0.0*
1,1,.00001,-.023492,-.008551*
20,1,.00001,-.023492,-.008551,-.02462,-.004341,0.0*
1,1,.00001,-.02462,-.004341*
20,1,.00001,-.02462,-.004341,-.025,0.0,0.0*
1,1,.00001,-.025,0.0*
20,1,.00001,-.025,0.0,-.02462,.004341,0.0*
1,1,.00001,-.02462,.004341*
20,1,.00001,-.02462,.004341,-.023492,.008551,0.0*
1,1,.00001,-.023492,.008551*
20,1,.00001,-.023492,.008551,-.021651,.0125,0.0*
1,1,.00001,-.021651,.0125*
20,1,.00001,-.021651,.0125,-.019151,.01607,0.0*
1,1,.00001,-.019151,.01607*
20,1,.00001,-.019151,.01607,-.01607,.019151,0.0*
1,1,.00001,-.01607,.019151*
20,1,.00001,-.01607,.019151,-.0125,.021651,0.0*
1,1,.00001,-.0125,.021651*
20,1,.00001,-.0125,.021651,-.008551,.023492,0.0*
1,1,.00001,-.008551,.023492*
20,1,.00001,-.008551,.023492,-.004341,.02462,0.0*
1,1,.00001,-.004341,.02462*
20,1,.00001,-.004341,.02462,0.0,.025,0.0*
1,1,.00001,0.0,.025*
20,1,.00001,0.0,.025,.004341,.02462,0.0*
1,1,.00001,.004341,.02462*
20,1,.00001,.004341,.02462,.008551,.023492,0.0*
1,1,.00001,.008551,.023492*
20,1,.00001,.008551,.023492,.0125,.021651,0.0*
1,1,.00001,.0125,.021651*
20,1,.00001,.0125,.021651,.01607,.019151,0.0*
1,1,.00001,.01607,.019151*
20,1,.00001,.01607,.019151,.019151,.01607,0.0*
1,1,.00001,.019151,.01607*
20,1,.00001,.019151,.01607,.021651,.0125,0.0*
1,1,.00001,.021651,.0125*
20,1,.00001,.021651,.0125,.023492,.008551,0.0*
1,1,.00001,.023492,.008551*
20,1,.00001,.023492,.008551,.02462,.004341,0.0*
1,1,.00001,.02462,.004341*
20,1,.00001,.02462,.004341,.025,0.0,0.0*
1,1,.00001,.025,0.0*
1,1,.00001,.0125,0.0*
20,1,.00001,.0125,0.0,-.0125,0.0,0.0*
1,1,.00001,-.0125,0.0*
1,1,.00001,0.0,.0125*
20,1,.00001,0.0,.0125,0.0,-.0125,0.0*
1,1,.00001,0.0,-.0125*
%
%ADD11MACRO11*%
%ADD12C,.004*%
%ADD13C,.00001*%
G75*
%LPD*%
G75*
G54D10*
X0Y0D03*
G54D11*
X35000Y74000D03*
Y87000D03*
X64937Y88063D03*
Y98063D03*
X65000Y131000D03*
X95782Y58000D03*
Y68782D03*
X84300Y134700D03*
X118000Y116000D03*
X130000Y114000D03*
G54D12*
G01X57400Y-22250D02*
Y-9750D01*
X55540Y-12250D01*
G01Y-22250D02*
X59260D01*
G01X69800Y-22667D02*
X69490Y-22458D01*
Y-22042D01*
X69800Y-21833D01*
X70110Y-22042D01*
Y-22458D01*
X69800Y-22667D01*
G01X78790Y-20375D02*
X79720Y-21417D01*
X80805Y-22042D01*
X82200Y-22250D01*
X83595Y-21833D01*
X84680Y-21000D01*
X85455Y-19542D01*
X85610Y-17875D01*
X85300Y-16208D01*
X84525Y-15167D01*
X83440Y-14333D01*
X82355Y-14125D01*
X81270Y-14333D01*
X79875Y-15167D01*
X80340Y-9750D01*
X84525D01*
G01X94600Y-22250D02*
X95685Y-22042D01*
X96925Y-21417D01*
X97700Y-20375D01*
X98010Y-18917D01*
X97700Y-17459D01*
X96770Y-16208D01*
X95375Y-15583D01*
X93825D01*
X92895Y-15167D01*
X92120Y-14125D01*
X91810Y-12667D01*
X92275Y-11208D01*
X93360Y-10167D01*
X94600Y-9750D01*
X95840Y-10167D01*
X96925Y-11208D01*
X97390Y-12667D01*
X97080Y-14125D01*
X96305Y-15167D01*
X95375Y-15583D01*
X93825D01*
X92430Y-16208D01*
X91500Y-17459D01*
X91190Y-18917D01*
X91500Y-20375D01*
X92275Y-21417D01*
X93515Y-22042D01*
X94600Y-22250D01*
G01X171400Y70750D02*
Y83250D01*
X169540Y80750D01*
G01Y70750D02*
X173260D01*
G01X183800Y70333D02*
X183490Y70542D01*
Y70958D01*
X183800Y71167D01*
X184110Y70958D01*
Y70542D01*
X183800Y70333D01*
G01X192790Y72625D02*
X193720Y71583D01*
X194805Y70958D01*
X196200Y70750D01*
X197595Y71167D01*
X198680Y72000D01*
X199455Y73458D01*
X199610Y75125D01*
X199300Y76792D01*
X198525Y77833D01*
X197440Y78667D01*
X196355Y78875D01*
X195270Y78667D01*
X193875Y77833D01*
X194340Y83250D01*
X198525D01*
G01X208600Y70750D02*
X209685Y70958D01*
X210925Y71583D01*
X211700Y72625D01*
X212010Y74083D01*
X211700Y75541D01*
X210770Y76792D01*
X209375Y77417D01*
X207825D01*
X206895Y77833D01*
X206120Y78875D01*
X205810Y80333D01*
X206275Y81792D01*
X207360Y82833D01*
X208600Y83250D01*
X209840Y82833D01*
X210925Y81792D01*
X211390Y80333D01*
X211080Y78875D01*
X210305Y77833D01*
X209375Y77417D01*
X207825D01*
X206430Y76792D01*
X205500Y75541D01*
X205190Y74083D01*
X205500Y72625D01*
X206275Y71583D01*
X207515Y70958D01*
X208600Y70750D01*
G54D13*
G01X0Y-10000D02*
Y-26000D01*
G01X43375Y-16000D02*
X0D01*
G01X15000Y-13500D02*
X0Y-16000D01*
X15000Y-18500D01*
Y-13500D01*
G01X108625Y-16000D02*
X157500D01*
G01Y-10000D02*
Y-26000D01*
G01X142500Y-18500D02*
X157500Y-16000D01*
X142500Y-13500D01*
Y-18500D01*
G01X167500Y0D02*
X200000D01*
G01X167500Y157500D02*
X200000D01*
G01X190000Y61375D02*
Y0D01*
G01X187500Y15000D02*
X190000Y0D01*
X192500Y15000D01*
X187500D01*
G01X190000Y92625D02*
Y157500D01*
G01X192500Y142500D02*
X190000Y157500D01*
X187500Y142500D01*
X192500D01*
M02*
