G04 ================== begin FILE IDENTIFICATION RECORD ==================*
G04 Layout Name:  PCB_ZANFIRA_DAN.brd*
G04 Film Name:    SMTOP*
G04 File Format:  Gerber RS274X*
G04 File Origin:  Cadence Allegro 17.2-S025*
G04 Origin Date:  Sat Jan 24 21:40:15 2026*
G04 *
G04 Layer:  VIA CLASS/SOLDERMASK_TOP*
G04 Layer:  PIN/SOLDERMASK_TOP*
G04 Layer:  PACKAGE GEOMETRY/SOLDERMASK_TOP*
G04 Layer:  BOARD GEOMETRY/SOLDERMASK_TOP*
G04 *
G04 Offset:    (0.00 0.00)*
G04 Mirror:    No*
G04 Mode:      Positive*
G04 Rotation:  0*
G04 FullContactRelief:  No*
G04 UndefLineWidth:     0.01*
G04 ================== end FILE IDENTIFICATION RECORD ====================*
%FSLAX25Y25*MOIN*%
%IR0*IPPOS*OFA0.00000B0.00000*MIA0B0*SFA1.00000B1.00000*%
%ADD17R,.106X.066*%
%ADD15C,.044*%
%ADD10C,.04724*%
%ADD21R,.05512X.05512*%
%ADD13C,.07874*%
%ADD19R,.13583X.06496*%
%ADD16R,.06X.046*%
%ADD18R,.04528X.04724*%
%ADD20R,.08268X.05512*%
%ADD11R,.04724X.04528*%
%ADD12R,.04528X.06496*%
%ADD14R,.06496X.04528*%
%LPD*%
G75*
G54D10*
X20000Y20000D03*
X137000Y138000D03*
G54D11*
X19457Y38000D03*
X26543D03*
X102543Y92000D03*
X95457D03*
X104457Y116000D03*
X111543D03*
G54D20*
X126528Y85756D03*
G54D12*
X19063Y58000D03*
Y78000D03*
Y100000D03*
X26937Y58000D03*
X47063Y49000D03*
X26937Y78000D03*
Y100000D03*
X54937Y49000D03*
X64937Y110000D03*
X57063D03*
X91937Y50000D03*
X84063D03*
X93937Y109000D03*
X86063D03*
X94937Y128000D03*
X87063D03*
G54D21*
X131055Y108000D03*
X122000D03*
G54D13*
X14000Y135000D03*
X90000Y81000D03*
X144000Y86000D03*
G54D14*
X48000Y26063D03*
Y33937D03*
X44000Y62063D03*
Y69937D03*
X64000Y70063D03*
Y77937D03*
X78000Y69937D03*
Y62063D03*
X57000Y135937D03*
Y128063D03*
G54D15*
X35000Y74000D03*
Y87000D03*
X64937Y88063D03*
Y98063D03*
X65000Y131000D03*
X95782Y58000D03*
Y68782D03*
X84300Y134700D03*
X118000Y116000D03*
X130000Y114000D03*
G54D16*
X45000Y98000D03*
Y89800D03*
X74000Y87800D03*
X53100Y93900D03*
X74000Y96000D03*
X82100Y91900D03*
G54D17*
X31000Y121500D03*
Y134500D03*
X120000Y127500D03*
Y140500D03*
G54D18*
X67000Y25457D03*
Y32543D03*
X72000Y128457D03*
Y135543D03*
X89000Y26457D03*
Y33543D03*
G54D19*
X109795Y28000D03*
Y63000D03*
X134205Y28000D03*
Y63000D03*
M02*
