G04 ================== begin FILE IDENTIFICATION RECORD ==================*
G04 Layout Name:  PCB_ZANFIRA_DAN.brd*
G04 Film Name:    SSTOP*
G04 File Format:  Gerber RS274X*
G04 File Origin:  Cadence Allegro 17.2-S025*
G04 Origin Date:  Sat Jan 24 21:40:15 2026*
G04 *
G04 Layer:  REF DES/SILKSCREEN_TOP*
G04 Layer:  PACKAGE GEOMETRY/SILKSCREEN_TOP*
G04 Layer:  BOARD GEOMETRY/SILKSCREEN_TOP*
G04 *
G04 Offset:    (0.00 0.00)*
G04 Mirror:    No*
G04 Mode:      Positive*
G04 Rotation:  0*
G04 FullContactRelief:  No*
G04 UndefLineWidth:     0.01*
G04 ================== end FILE IDENTIFICATION RECORD ====================*
%FSLAX25Y25*MOIN*%
%IR0*IPPOS*OFA0.00000B0.00000*MIA0B0*SFA1.00000B1.00000*%
%ADD10C,.004*%
%ADD11C,.00001*%
%ADD12C,.00984*%
%ADD13C,.00787*%
G75*
%LPD*%
G75*
G54D10*
G01X9293Y11500D02*
X10307D01*
X9293Y9000D01*
X10307D01*
G01X11333D02*
X12000Y11500D01*
X12667Y9000D01*
G01X12427Y9875D02*
X11573D01*
G01X13587Y9000D02*
Y11500D01*
X14813Y9000D01*
Y11500D01*
G01X15893Y9000D02*
Y11500D01*
X16907D01*
G01X16533Y10292D02*
X15893D01*
G01X18280Y11500D02*
X18920D01*
G01X18600D02*
Y9000D01*
G01X18280D02*
X18920D01*
G01X20267D02*
Y11500D01*
X20933D01*
X21147Y11375D01*
X21280Y11208D01*
X21333Y10875D01*
X21280Y10542D01*
X21120Y10333D01*
X20933Y10208D01*
X20267D01*
G01X20933D02*
X21333Y9000D01*
G01X22333D02*
X23000Y11500D01*
X23667Y9000D01*
G01X23427Y9875D02*
X22573D01*
G01X26813Y9000D02*
Y11500D01*
X27347D01*
X27560Y11375D01*
X27720Y11208D01*
X27853Y10958D01*
X27960Y10667D01*
X27987Y10250D01*
X27960Y9833D01*
X27853Y9542D01*
X27720Y9292D01*
X27560Y9125D01*
X27347Y9000D01*
X26813D01*
G01X28933D02*
X29600Y11500D01*
X30267Y9000D01*
G01X30027Y9875D02*
X29173D01*
G01X31187Y9000D02*
Y11500D01*
X32413Y9000D01*
Y11500D01*
G01X36520Y9000D02*
Y11500D01*
X35533Y9708D01*
X36867D01*
G01X37813Y9500D02*
X37973Y9208D01*
X38187Y9042D01*
X38427Y9000D01*
X38640Y9042D01*
X38853Y9250D01*
X38987Y9500D01*
X39013Y9750D01*
X38960Y10042D01*
X38773Y10250D01*
X38587Y10333D01*
X38347D01*
G01X38587D02*
X38747Y10458D01*
X38880Y10667D01*
X38933Y10917D01*
X38880Y11167D01*
X38747Y11375D01*
X38507Y11500D01*
X38267Y11458D01*
X38027Y11292D01*
G01X40920Y9000D02*
Y11500D01*
X39933Y9708D01*
X41267D01*
G01X42133Y9000D02*
X42800Y11500D01*
X43467Y9000D01*
G01X43227Y9875D02*
X42373D01*
G01X46667Y9000D02*
Y11500D01*
X47307D01*
X47520Y11375D01*
X47680Y11083D01*
X47733Y10750D01*
X47680Y10417D01*
X47547Y10167D01*
X47307Y10042D01*
X46667D01*
G01X49400Y9000D02*
Y11500D01*
X49080Y11000D01*
G01Y9000D02*
X49720D01*
G01X51013D02*
Y11500D01*
X51547D01*
X51760Y11375D01*
X51920Y11208D01*
X52053Y10958D01*
X52160Y10667D01*
X52187Y10250D01*
X52160Y9833D01*
X52053Y9542D01*
X51920Y9292D01*
X51760Y9125D01*
X51547Y9000D01*
X51013D01*
G01X54387Y11292D02*
X54227Y11417D01*
X54040Y11500D01*
X53827D01*
X53587Y11375D01*
X53400Y11167D01*
X53267Y10917D01*
X53160Y10500D01*
X53133Y10125D01*
X53187Y9750D01*
X53267Y9500D01*
X53427Y9250D01*
X53613Y9083D01*
X53800Y9000D01*
X53987D01*
X54173Y9083D01*
X54333Y9208D01*
X54467Y9375D01*
G01X56533Y9000D02*
X55467D01*
Y11500D01*
X56533D01*
G01X56107Y10292D02*
X55467D01*
G01X57693Y11083D02*
X57853Y11333D01*
X58040Y11458D01*
X58253Y11500D01*
X58520Y11417D01*
X58707Y11208D01*
X58760Y10958D01*
X58733Y10708D01*
X58627Y10500D01*
X58093Y10083D01*
X57853Y9792D01*
X57693Y9375D01*
X57640Y9000D01*
X58760D01*
G01X60400Y11500D02*
X60187Y11417D01*
X60027Y11208D01*
X59920Y10958D01*
X59840Y10625D01*
X59813Y10250D01*
X59840Y9875D01*
X59920Y9542D01*
X60027Y9292D01*
X60187Y9083D01*
X60400Y9000D01*
X60613Y9083D01*
X60773Y9292D01*
X60880Y9542D01*
X60960Y9875D01*
X60987Y10250D01*
X60960Y10625D01*
X60880Y10958D01*
X60773Y11208D01*
X60613Y11417D01*
X60400Y11500D01*
G01X62093Y11083D02*
X62253Y11333D01*
X62440Y11458D01*
X62653Y11500D01*
X62920Y11417D01*
X63107Y11208D01*
X63160Y10958D01*
X63133Y10708D01*
X63027Y10500D01*
X62493Y10083D01*
X62253Y9792D01*
X62093Y9375D01*
X62040Y9000D01*
X63160D01*
G01X64213Y9375D02*
X64373Y9167D01*
X64560Y9042D01*
X64800Y9000D01*
X65040Y9083D01*
X65227Y9250D01*
X65360Y9542D01*
X65387Y9875D01*
X65333Y10208D01*
X65200Y10417D01*
X65013Y10583D01*
X64827Y10625D01*
X64640Y10583D01*
X64400Y10417D01*
X64480Y11500D01*
X65200D01*
G01X66653Y9833D02*
X67347D01*
G01X68693Y11083D02*
X68853Y11333D01*
X69040Y11458D01*
X69253Y11500D01*
X69520Y11417D01*
X69707Y11208D01*
X69760Y10958D01*
X69733Y10708D01*
X69627Y10500D01*
X69093Y10083D01*
X68853Y9792D01*
X68693Y9375D01*
X68640Y9000D01*
X69760D01*
G01X71400Y11500D02*
X71187Y11417D01*
X71027Y11208D01*
X70920Y10958D01*
X70840Y10625D01*
X70813Y10250D01*
X70840Y9875D01*
X70920Y9542D01*
X71027Y9292D01*
X71187Y9083D01*
X71400Y9000D01*
X71613Y9083D01*
X71773Y9292D01*
X71880Y9542D01*
X71960Y9875D01*
X71987Y10250D01*
X71960Y10625D01*
X71880Y10958D01*
X71773Y11208D01*
X71613Y11417D01*
X71400Y11500D01*
G01X73093Y11083D02*
X73253Y11333D01*
X73440Y11458D01*
X73653Y11500D01*
X73920Y11417D01*
X74107Y11208D01*
X74160Y10958D01*
X74133Y10708D01*
X74027Y10500D01*
X73493Y10083D01*
X73253Y9792D01*
X73093Y9375D01*
X73040Y9000D01*
X74160D01*
G01X75293Y10042D02*
X75480Y10333D01*
X75640Y10500D01*
X75853Y10583D01*
X76040Y10500D01*
X76173Y10333D01*
X76280Y10083D01*
X76307Y9792D01*
X76280Y9542D01*
X76173Y9292D01*
X76013Y9083D01*
X75827Y9000D01*
X75613Y9083D01*
X75427Y9333D01*
X75320Y9708D01*
X75293Y10125D01*
X75347Y10667D01*
X75427Y10958D01*
X75560Y11250D01*
X75747Y11458D01*
X75933Y11500D01*
X76120Y11417D01*
X76253Y11208D01*
G01X15362Y59000D02*
Y55063D01*
X14378D01*
X14063Y55260D01*
X13866Y55522D01*
X13788Y56047D01*
X13866Y56572D01*
X14103Y56900D01*
X14378Y57097D01*
X15362D01*
G01X14378D02*
X13788Y59000D01*
G01X12095Y58541D02*
X11820Y58869D01*
X11505Y59000D01*
X11190Y58869D01*
X10914Y58475D01*
X10717Y57885D01*
X10639Y57294D01*
Y56572D01*
X10717Y55982D01*
X10914Y55457D01*
X11150Y55194D01*
X11426Y55063D01*
X11741Y55194D01*
X11977Y55457D01*
X12135Y55850D01*
X12213Y56375D01*
X12135Y56835D01*
X11938Y57294D01*
X11702Y57557D01*
X11426Y57622D01*
X11111Y57491D01*
X10875Y57163D01*
X10639Y56572D01*
G01X20000Y118533D02*
X20500Y118800D01*
X20833Y119120D01*
X21000Y119493D01*
X20833Y119920D01*
X20500Y120240D01*
X20000Y120560D01*
X19333Y120667D01*
X16000D01*
G01X16833Y122987D02*
X16333Y123307D01*
X16083Y123680D01*
X16000Y124107D01*
X16167Y124640D01*
X16583Y125013D01*
X17083Y125120D01*
X17583Y125067D01*
X18000Y124853D01*
X18833Y123787D01*
X19417Y123307D01*
X20250Y122987D01*
X21000Y122880D01*
Y125120D01*
G01X12996Y140984D02*
Y140000D01*
G01X12619Y140984D02*
X13373D01*
G01X13672Y140000D02*
Y140984D01*
X14066D01*
X14197Y140935D01*
X14295Y140820D01*
X14328Y140689D01*
X14295Y140558D01*
X14213Y140459D01*
X14066Y140410D01*
X13672D01*
G01X15004Y140000D02*
Y140984D01*
X14807Y140787D01*
G01Y140000D02*
X15201D01*
G01X29709Y30391D02*
X29945Y30194D01*
X30221Y30063D01*
X30536D01*
X30890Y30260D01*
X31165Y30588D01*
X31362Y30982D01*
X31520Y31638D01*
X31559Y32228D01*
X31480Y32819D01*
X31362Y33213D01*
X31126Y33606D01*
X30851Y33869D01*
X30575Y34000D01*
X30299D01*
X30024Y33869D01*
X29788Y33672D01*
X29591Y33410D01*
G01X28292D02*
X28056Y33738D01*
X27780Y33934D01*
X27426Y34000D01*
X27072Y33869D01*
X26796Y33606D01*
X26599Y33147D01*
X26560Y32622D01*
X26639Y32097D01*
X26836Y31769D01*
X27111Y31507D01*
X27387Y31441D01*
X27662Y31507D01*
X28016Y31769D01*
X27898Y30063D01*
X26836D01*
G01X41000Y29064D02*
X37063D01*
Y30048D01*
X37260Y30363D01*
X37522Y30560D01*
X38047Y30638D01*
X38572Y30560D01*
X38900Y30323D01*
X39097Y30048D01*
Y29064D01*
G01Y30048D02*
X41000Y30638D01*
G01Y33000D02*
X37063D01*
X37850Y32528D01*
G01X41000D02*
Y33472D01*
G01X37063Y36149D02*
X37194Y35834D01*
X37522Y35598D01*
X37916Y35440D01*
X38441Y35322D01*
X39032Y35283D01*
X39622Y35322D01*
X40147Y35440D01*
X40541Y35598D01*
X40869Y35834D01*
X41000Y36149D01*
X40869Y36464D01*
X40541Y36700D01*
X40147Y36858D01*
X39622Y36976D01*
X39032Y37015D01*
X38441Y36976D01*
X37916Y36858D01*
X37522Y36700D01*
X37194Y36464D01*
X37063Y36149D01*
G01X47064Y54000D02*
Y57937D01*
X48048D01*
X48363Y57740D01*
X48560Y57478D01*
X48638Y56953D01*
X48560Y56428D01*
X48323Y56100D01*
X48048Y55903D01*
X47064D01*
G01X48048D02*
X48638Y54000D01*
G01X50252Y55640D02*
X50528Y56100D01*
X50764Y56362D01*
X51079Y56493D01*
X51354Y56362D01*
X51551Y56100D01*
X51709Y55706D01*
X51748Y55247D01*
X51709Y54853D01*
X51551Y54459D01*
X51315Y54131D01*
X51039Y54000D01*
X50724Y54131D01*
X50449Y54525D01*
X50291Y55115D01*
X50252Y55772D01*
X50331Y56625D01*
X50449Y57084D01*
X50646Y57543D01*
X50921Y57871D01*
X51197Y57937D01*
X51472Y57806D01*
X51669Y57478D01*
G01X53283Y54787D02*
X53519Y54328D01*
X53834Y54066D01*
X54188Y54000D01*
X54503Y54066D01*
X54818Y54394D01*
X55015Y54787D01*
X55054Y55181D01*
X54976Y55640D01*
X54700Y55968D01*
X54425Y56100D01*
X54070D01*
G01X54425D02*
X54661Y56297D01*
X54858Y56625D01*
X54936Y57018D01*
X54858Y57412D01*
X54661Y57740D01*
X54306Y57937D01*
X53952Y57871D01*
X53598Y57609D01*
G01X22638Y83000D02*
Y86937D01*
X23622D01*
X23937Y86740D01*
X24134Y86478D01*
X24212Y85953D01*
X24134Y85428D01*
X23897Y85100D01*
X23622Y84903D01*
X22638D01*
G01X23622D02*
X24212Y83000D01*
G01X25708Y83787D02*
X25944Y83328D01*
X26259Y83066D01*
X26613Y83000D01*
X26928Y83066D01*
X27243Y83394D01*
X27440Y83787D01*
X27479Y84181D01*
X27401Y84640D01*
X27125Y84968D01*
X26850Y85100D01*
X26495D01*
G01X26850D02*
X27086Y85297D01*
X27283Y85625D01*
X27361Y86018D01*
X27283Y86412D01*
X27086Y86740D01*
X26731Y86937D01*
X26377Y86871D01*
X26023Y86609D01*
G01X51700Y86400D02*
X52207Y86317D01*
X52650Y85983D01*
X53030Y85483D01*
X53283Y84900D01*
X53410Y84233D01*
Y83567D01*
X53283Y82900D01*
X53030Y82317D01*
X52650Y81817D01*
X52207Y81483D01*
X51700Y81400D01*
X51193Y81483D01*
X50750Y81817D01*
X50370Y82317D01*
X50117Y82900D01*
X49990Y83567D01*
Y84233D01*
X50117Y84900D01*
X50370Y85483D01*
X50750Y85983D01*
X51193Y86317D01*
X51700Y86400D01*
G01X51193Y85067D02*
X50433Y86400D01*
G01X46600D02*
Y81400D01*
X47360Y82400D01*
G01Y86400D02*
X45840D01*
G01X22638Y106000D02*
Y109937D01*
X23622D01*
X23937Y109740D01*
X24134Y109478D01*
X24212Y108953D01*
X24134Y108428D01*
X23897Y108100D01*
X23622Y107903D01*
X22638D01*
G01X23622D02*
X24212Y106000D01*
G01X25708Y106590D02*
X25944Y106262D01*
X26220Y106066D01*
X26574Y106000D01*
X26928Y106131D01*
X27204Y106394D01*
X27401Y106853D01*
X27440Y107378D01*
X27361Y107903D01*
X27164Y108231D01*
X26889Y108493D01*
X26613Y108559D01*
X26338Y108493D01*
X25984Y108231D01*
X26102Y109937D01*
X27164D01*
G01X50000Y138638D02*
X46063D01*
Y139622D01*
X46260Y139937D01*
X46522Y140134D01*
X47047Y140212D01*
X47572Y140134D01*
X47900Y139897D01*
X48097Y139622D01*
Y138638D01*
G01Y139622D02*
X50000Y140212D01*
G01Y142574D02*
X46063D01*
X46850Y142102D01*
G01X50000D02*
Y143046D01*
G01X58391Y31291D02*
X58194Y31055D01*
X58063Y30779D01*
Y30464D01*
X58260Y30110D01*
X58588Y29835D01*
X58982Y29638D01*
X59638Y29480D01*
X60228Y29441D01*
X60819Y29520D01*
X61213Y29638D01*
X61606Y29874D01*
X61869Y30149D01*
X62000Y30425D01*
Y30701D01*
X61869Y30976D01*
X61672Y31212D01*
X61410Y31409D01*
G01X60360Y32826D02*
X59900Y33102D01*
X59638Y33338D01*
X59507Y33653D01*
X59638Y33928D01*
X59900Y34125D01*
X60294Y34283D01*
X60753Y34322D01*
X61147Y34283D01*
X61541Y34125D01*
X61869Y33889D01*
X62000Y33613D01*
X61869Y33298D01*
X61475Y33023D01*
X60885Y32865D01*
X60228Y32826D01*
X59375Y32905D01*
X58916Y33023D01*
X58457Y33220D01*
X58129Y33495D01*
X58063Y33771D01*
X58194Y34046D01*
X58522Y34243D01*
G01X68000Y83362D02*
X71937D01*
Y82378D01*
X71740Y82063D01*
X71478Y81866D01*
X70953Y81788D01*
X70428Y81866D01*
X70100Y82103D01*
X69903Y82378D01*
Y83362D01*
G01Y82378D02*
X68000Y81788D01*
G01X69640Y80174D02*
X70100Y79898D01*
X70362Y79662D01*
X70493Y79347D01*
X70362Y79072D01*
X70100Y78875D01*
X69706Y78717D01*
X69247Y78678D01*
X68853Y78717D01*
X68459Y78875D01*
X68131Y79111D01*
X68000Y79387D01*
X68131Y79702D01*
X68525Y79977D01*
X69115Y80135D01*
X69772Y80174D01*
X70625Y80095D01*
X71084Y79977D01*
X71543Y79780D01*
X71871Y79505D01*
X71937Y79229D01*
X71806Y78954D01*
X71478Y78757D01*
G01X49064Y64000D02*
Y67937D01*
X50048D01*
X50363Y67740D01*
X50560Y67478D01*
X50638Y66953D01*
X50560Y66428D01*
X50323Y66100D01*
X50048Y65903D01*
X49064D01*
G01X50048D02*
X50638Y64000D01*
G01X52252Y65640D02*
X52528Y66100D01*
X52764Y66362D01*
X53079Y66493D01*
X53354Y66362D01*
X53551Y66100D01*
X53709Y65706D01*
X53748Y65247D01*
X53709Y64853D01*
X53551Y64459D01*
X53315Y64131D01*
X53039Y64000D01*
X52724Y64131D01*
X52449Y64525D01*
X52291Y65115D01*
X52252Y65772D01*
X52331Y66625D01*
X52449Y67084D01*
X52646Y67543D01*
X52921Y67871D01*
X53197Y67937D01*
X53472Y67806D01*
X53669Y67478D01*
G01X55401Y67281D02*
X55637Y67674D01*
X55913Y67871D01*
X56228Y67937D01*
X56621Y67806D01*
X56897Y67478D01*
X56976Y67084D01*
X56936Y66690D01*
X56779Y66362D01*
X55992Y65706D01*
X55637Y65247D01*
X55401Y64590D01*
X55322Y64000D01*
X56976D01*
G01X73000Y64064D02*
X69063D01*
Y65048D01*
X69260Y65363D01*
X69522Y65560D01*
X70047Y65638D01*
X70572Y65560D01*
X70900Y65323D01*
X71097Y65048D01*
Y64064D01*
G01Y65048D02*
X73000Y65638D01*
G01Y68000D02*
X69063D01*
X69850Y67528D01*
G01X73000D02*
Y68472D01*
G01X72410Y70283D02*
X72738Y70519D01*
X72934Y70795D01*
X73000Y71149D01*
X72869Y71503D01*
X72606Y71779D01*
X72147Y71976D01*
X71622Y72015D01*
X71097Y71936D01*
X70769Y71739D01*
X70507Y71464D01*
X70441Y71188D01*
X70507Y70913D01*
X70769Y70559D01*
X69063Y70677D01*
Y71739D01*
G01X83100Y84000D02*
X83607Y83917D01*
X84050Y83583D01*
X84430Y83083D01*
X84683Y82500D01*
X84810Y81833D01*
Y81167D01*
X84683Y80500D01*
X84430Y79917D01*
X84050Y79417D01*
X83607Y79083D01*
X83100Y79000D01*
X82593Y79083D01*
X82150Y79417D01*
X81770Y79917D01*
X81517Y80500D01*
X81390Y81167D01*
Y81833D01*
X81517Y82500D01*
X81770Y83083D01*
X82150Y83583D01*
X82593Y83917D01*
X83100Y84000D01*
G01X82593Y82667D02*
X81833Y84000D01*
G01X79203Y79833D02*
X78823Y79333D01*
X78380Y79083D01*
X77873Y79000D01*
X77240Y79167D01*
X76797Y79583D01*
X76670Y80083D01*
X76733Y80583D01*
X76987Y81000D01*
X78253Y81833D01*
X78823Y82417D01*
X79203Y83250D01*
X79330Y84000D01*
X76670D01*
G01X68064Y115000D02*
Y118937D01*
X69048D01*
X69363Y118740D01*
X69560Y118478D01*
X69638Y117953D01*
X69560Y117428D01*
X69323Y117100D01*
X69048Y116903D01*
X68064D01*
G01X69048D02*
X69638Y115000D01*
G01X71252Y116640D02*
X71528Y117100D01*
X71764Y117362D01*
X72079Y117493D01*
X72354Y117362D01*
X72551Y117100D01*
X72709Y116706D01*
X72748Y116247D01*
X72709Y115853D01*
X72551Y115459D01*
X72315Y115131D01*
X72039Y115000D01*
X71724Y115131D01*
X71449Y115525D01*
X71291Y116115D01*
X71252Y116772D01*
X71331Y117625D01*
X71449Y118084D01*
X71646Y118543D01*
X71921Y118871D01*
X72197Y118937D01*
X72472Y118806D01*
X72669Y118478D01*
G01X74283Y115590D02*
X74519Y115262D01*
X74795Y115066D01*
X75149Y115000D01*
X75503Y115131D01*
X75779Y115394D01*
X75976Y115853D01*
X76015Y116378D01*
X75936Y116903D01*
X75739Y117231D01*
X75464Y117493D01*
X75188Y117559D01*
X74913Y117493D01*
X74559Y117231D01*
X74677Y118937D01*
X75739D01*
G01X79609Y141283D02*
X79806Y141519D01*
X79937Y141795D01*
Y142110D01*
X79740Y142464D01*
X79412Y142739D01*
X79018Y142936D01*
X78362Y143094D01*
X77772Y143133D01*
X77181Y143054D01*
X76787Y142936D01*
X76394Y142700D01*
X76131Y142425D01*
X76000Y142149D01*
Y141873D01*
X76131Y141598D01*
X76328Y141362D01*
X76590Y141165D01*
G01X76000Y139000D02*
X79937D01*
X79150Y139472D01*
G01X76000D02*
Y138528D01*
G01Y135379D02*
X79937D01*
X77115Y136835D01*
Y134867D01*
G01X93391Y27717D02*
X93194Y27481D01*
X93063Y27205D01*
Y26890D01*
X93260Y26536D01*
X93588Y26261D01*
X93982Y26064D01*
X94638Y25906D01*
X95228Y25867D01*
X95819Y25946D01*
X96213Y26064D01*
X96606Y26300D01*
X96869Y26575D01*
X97000Y26851D01*
Y27127D01*
X96869Y27402D01*
X96672Y27638D01*
X96410Y27835D01*
G01X97000Y30000D02*
X93063D01*
X93850Y29528D01*
G01X97000D02*
Y30472D01*
G01X96213Y32283D02*
X96672Y32519D01*
X96934Y32834D01*
X97000Y33188D01*
X96934Y33503D01*
X96606Y33818D01*
X96213Y34015D01*
X95819Y34054D01*
X95360Y33976D01*
X95032Y33700D01*
X94900Y33425D01*
Y33070D01*
G01Y33425D02*
X94703Y33661D01*
X94375Y33858D01*
X93982Y33936D01*
X93588Y33858D01*
X93260Y33661D01*
X93063Y33306D01*
X93129Y32952D01*
X93391Y32598D01*
G01X82064Y55000D02*
Y58937D01*
X83048D01*
X83363Y58740D01*
X83560Y58478D01*
X83638Y57953D01*
X83560Y57428D01*
X83323Y57100D01*
X83048Y56903D01*
X82064D01*
G01X83048D02*
X83638Y55000D01*
G01X85252Y56640D02*
X85528Y57100D01*
X85764Y57362D01*
X86079Y57493D01*
X86354Y57362D01*
X86551Y57100D01*
X86709Y56706D01*
X86748Y56247D01*
X86709Y55853D01*
X86551Y55459D01*
X86315Y55131D01*
X86039Y55000D01*
X85724Y55131D01*
X85449Y55525D01*
X85291Y56115D01*
X85252Y56772D01*
X85331Y57625D01*
X85449Y58084D01*
X85646Y58543D01*
X85921Y58871D01*
X86197Y58937D01*
X86472Y58806D01*
X86669Y58478D01*
G01X89621Y55000D02*
Y58937D01*
X88165Y56115D01*
X90133D01*
G01X98293Y46583D02*
X97913Y46833D01*
X97470Y47000D01*
X96963D01*
X96393Y46750D01*
X95950Y46333D01*
X95633Y45833D01*
X95380Y45000D01*
X95317Y44250D01*
X95443Y43500D01*
X95633Y43000D01*
X96013Y42500D01*
X96457Y42167D01*
X96900Y42000D01*
X97343D01*
X97787Y42167D01*
X98167Y42417D01*
X98483Y42750D01*
G01X102000Y42000D02*
Y47000D01*
X101240Y46000D01*
G01Y42000D02*
X102760D01*
G01X107100D02*
Y47000D01*
X106340Y46000D01*
G01Y42000D02*
X107860D01*
G01X88996Y86984D02*
Y86000D01*
G01X88619Y86984D02*
X89373D01*
G01X89672Y86000D02*
Y86984D01*
X90066D01*
X90197Y86935D01*
X90295Y86820D01*
X90328Y86689D01*
X90295Y86558D01*
X90213Y86459D01*
X90066Y86410D01*
X89672D01*
G01X90643Y86197D02*
X90742Y86082D01*
X90873Y86016D01*
X91020Y86000D01*
X91152Y86016D01*
X91283Y86098D01*
X91365Y86197D01*
X91381Y86295D01*
X91348Y86410D01*
X91234Y86492D01*
X91119Y86525D01*
X90971D01*
G01X91119D02*
X91217Y86574D01*
X91299Y86656D01*
X91332Y86754D01*
X91299Y86853D01*
X91217Y86935D01*
X91070Y86984D01*
X90922Y86968D01*
X90774Y86902D01*
G01X106843Y83583D02*
X106463Y83833D01*
X106020Y84000D01*
X105513D01*
X104943Y83750D01*
X104500Y83333D01*
X104183Y82833D01*
X103930Y82000D01*
X103867Y81250D01*
X103993Y80500D01*
X104183Y80000D01*
X104563Y79500D01*
X105007Y79167D01*
X105450Y79000D01*
X105893D01*
X106337Y79167D01*
X106717Y79417D01*
X107033Y79750D01*
G01X111310Y79000D02*
Y84000D01*
X108967Y80417D01*
X112133D01*
G01X95291Y100609D02*
X95055Y100806D01*
X94779Y100937D01*
X94464D01*
X94110Y100740D01*
X93835Y100412D01*
X93638Y100018D01*
X93480Y99362D01*
X93441Y98772D01*
X93520Y98181D01*
X93638Y97787D01*
X93874Y97394D01*
X94149Y97131D01*
X94425Y97000D01*
X94701D01*
X94976Y97131D01*
X95212Y97328D01*
X95409Y97590D01*
G01X96826Y100281D02*
X97062Y100674D01*
X97338Y100871D01*
X97653Y100937D01*
X98046Y100806D01*
X98322Y100478D01*
X98401Y100084D01*
X98361Y99690D01*
X98204Y99362D01*
X97417Y98706D01*
X97062Y98247D01*
X96826Y97590D01*
X96747Y97000D01*
X98401D01*
G01X87638Y114000D02*
Y117937D01*
X88622D01*
X88937Y117740D01*
X89134Y117478D01*
X89212Y116953D01*
X89134Y116428D01*
X88897Y116100D01*
X88622Y115903D01*
X87638D01*
G01X88622D02*
X89212Y114000D01*
G01X92046D02*
Y117937D01*
X90590Y115115D01*
X92558D01*
G01X105291Y124609D02*
X105055Y124806D01*
X104779Y124937D01*
X104464D01*
X104110Y124740D01*
X103835Y124412D01*
X103638Y124018D01*
X103480Y123362D01*
X103441Y122772D01*
X103520Y122181D01*
X103638Y121787D01*
X103874Y121394D01*
X104149Y121131D01*
X104425Y121000D01*
X104701D01*
X104976Y121131D01*
X105212Y121328D01*
X105409Y121590D01*
G01X107574Y121000D02*
Y124937D01*
X107102Y124150D01*
G01Y121000D02*
X108046D01*
G01X91064Y133000D02*
Y136937D01*
X92048D01*
X92363Y136740D01*
X92560Y136478D01*
X92638Y135953D01*
X92560Y135428D01*
X92323Y135100D01*
X92048Y134903D01*
X91064D01*
G01X92048D02*
X92638Y133000D01*
G01X94252Y136281D02*
X94488Y136674D01*
X94764Y136871D01*
X95079Y136937D01*
X95472Y136806D01*
X95748Y136478D01*
X95827Y136084D01*
X95787Y135690D01*
X95630Y135362D01*
X94843Y134706D01*
X94488Y134247D01*
X94252Y133590D01*
X94173Y133000D01*
X95827D01*
G01X98149D02*
Y136937D01*
X97677Y136150D01*
G01Y133000D02*
X98621D01*
G01X133000Y123933D02*
X133500Y124200D01*
X133833Y124520D01*
X134000Y124893D01*
X133833Y125320D01*
X133500Y125640D01*
X133000Y125960D01*
X132333Y126067D01*
X129000D01*
G01X134000Y129400D02*
X129000D01*
X130000Y128760D01*
G01X134000D02*
Y130040D01*
G01X142996Y91984D02*
Y91000D01*
G01X142619Y91984D02*
X143373D01*
G01X143672Y91000D02*
Y91984D01*
X144066D01*
X144197Y91935D01*
X144295Y91820D01*
X144328Y91689D01*
X144295Y91558D01*
X144213Y91459D01*
X144066Y91410D01*
X143672D01*
G01X144692Y91820D02*
X144791Y91918D01*
X144906Y91968D01*
X145037Y91984D01*
X145201Y91951D01*
X145316Y91869D01*
X145348Y91771D01*
X145332Y91672D01*
X145266Y91590D01*
X144938Y91426D01*
X144791Y91312D01*
X144692Y91148D01*
X144660Y91000D01*
X145348D01*
G01X141000Y98267D02*
X138500D01*
Y98907D01*
X138625Y99120D01*
X138917Y99280D01*
X139250Y99333D01*
X139583Y99280D01*
X139833Y99147D01*
X139958Y98907D01*
Y98267D01*
G01X141000Y101000D02*
X138500D01*
X139000Y100680D01*
G01X141000D02*
Y101320D01*
G54D11*
G01X22500Y122500D02*
Y116000D01*
X22600D01*
X39500D01*
Y122500D01*
G01X51800Y99900D02*
Y87900D01*
X46200D01*
Y99900D01*
X51800D01*
G01X39500Y133500D02*
Y140000D01*
X22500D01*
Y138500D01*
Y133500D01*
G01X80800Y97900D02*
Y85900D01*
X75200D01*
Y97900D01*
X80800D01*
G01X111500Y128500D02*
Y122000D01*
X111600D01*
X128500D01*
Y128500D01*
G01Y139500D02*
Y146000D01*
X111500D01*
Y144500D01*
Y139500D01*
G54D12*
G01X104578Y33315D02*
G03I-491J0D01*
G01X104579Y68315D02*
G03I-492J0D01*
G54D13*
G01X23000Y60165D02*
Y55835D01*
G01X50165Y30000D02*
X45835D01*
G01X23000Y75835D02*
Y80165D01*
G01X41835Y66000D02*
X46165D01*
G01X23000Y97835D02*
Y102165D01*
G01X51000Y46835D02*
Y51165D01*
G01X61835Y74000D02*
X66165D01*
G01X80165Y66000D02*
X75835D01*
G01X61000Y107835D02*
Y112165D01*
G01X59165Y132000D02*
X54835D01*
G01X88000Y47835D02*
Y52165D01*
G01X90000Y106835D02*
Y111165D01*
G01X91000Y125835D02*
Y130165D01*
G01X134992Y23276D02*
Y15008D01*
X115504D01*
X109008Y21504D01*
Y23276D01*
G01X134992Y58276D02*
Y50008D01*
X115504D01*
X109008Y56504D01*
Y58276D01*
G01X134992Y32724D02*
Y40992D01*
X115504D01*
X109008Y34496D01*
Y32724D01*
G01X134992Y67724D02*
Y75992D01*
X115504D01*
X109008Y69496D01*
Y67724D01*
G01X132039Y87035D02*
X136370D01*
Y106720D01*
X135189D01*
G01X121016Y87035D02*
X116685D01*
Y106720D01*
X117866D01*
G01X122000Y96878D02*
X130858D01*
G01X126528Y92350D02*
Y101406D01*
G01X120622Y96878D02*
G03X126528Y90972I5906J0D01*
G03X132433Y97075I-1J5909D01*
G03X126528Y102783I-5899J-194D01*
G03X120622Y96878I-1J-5905D01*
G01X125543Y106720D02*
X127512D01*
M02*
