G04 ================== begin FILE IDENTIFICATION RECORD ==================*
G04 Layout Name:  PCB_ZANFIRA_DAN.brd*
G04 Film Name:    TOP*
G04 File Format:  Gerber RS274X*
G04 File Origin:  Cadence Allegro 17.2-S025*
G04 Origin Date:  Sat Jan 24 21:40:15 2026*
G04 *
G04 Layer:  ETCH/TOP*
G04 Layer:  PIN/TOP*
G04 Layer:  VIA CLASS/TOP*
G04 *
G04 Offset:    (0.00 0.00)*
G04 Mirror:    No*
G04 Mode:      Positive*
G04 Rotation:  0*
G04 FullContactRelief:  No*
G04 UndefLineWidth:     0.01*
G04 ================== end FILE IDENTIFICATION RECORD ====================*
%FSLAX25Y25*MOIN*%
%IR0*IPPOS*OFA0.00000B0.00000*MIA0B0*SFA1.00000B1.00000*%
%ADD16R,.1X.06*%
%ADD14C,.026*%
%ADD20R,.05118X.05118*%
%ADD10C,.03937*%
%ADD18R,.13583X.06496*%
%ADD15R,.05X.036*%
%ADD17R,.0374X.04331*%
%ADD11R,.04331X.0374*%
%ADD12R,.0374X.05709*%
%ADD13R,.05709X.0374*%
%ADD19R,.07874X.05118*%
%ADD21C,.016*%
G75*
%LPD*%
G75*
G54D10*
X20000Y20000D03*
X14000Y135000D03*
X90000Y81000D03*
X137000Y138000D03*
X144000Y86000D03*
G54D11*
X19457Y38000D03*
X26543D03*
X102543Y92000D03*
X95457D03*
X104457Y116000D03*
X111543D03*
G54D20*
X131055Y108000D03*
X122000D03*
G54D21*
G01X19457Y38000D02*
Y53451D01*
X19063Y53845D01*
Y58000D01*
G01Y100000D02*
Y111563D01*
X29000Y121500D01*
X31000D01*
G01X14000Y135000D02*
X24200D01*
X24700Y134500D01*
X31000D01*
G01X48000Y26063D02*
X43845D01*
X42908Y27000D01*
X26000D01*
X19457Y33543D01*
Y38000D01*
G01X67000Y25457D02*
X63830D01*
X63224Y26063D01*
X48000D01*
G01Y33937D02*
Y43908D01*
X47063Y44845D01*
Y49000D01*
G01X26543Y38000D02*
Y53451D01*
X26937Y53845D01*
Y58000D01*
G01X44000Y69937D02*
X59719D01*
X59845Y70063D01*
X64000D01*
G01X19063Y100000D02*
Y78000D01*
G01X26937Y58000D02*
Y78000D01*
G01D02*
X32500D01*
X44300Y89800D01*
X45000D01*
G01X78000Y62063D02*
X44000D01*
G01X35000Y87000D02*
X26937Y95063D01*
Y100000D01*
G01X44000Y62063D02*
X38937D01*
X35000Y66000D01*
Y74000D01*
G01X45000Y98000D02*
Y101107D01*
X53893Y110000D01*
X57063D01*
G01X57000Y128063D02*
X49063D01*
X42500Y121500D01*
X31000D01*
G01X57000Y135937D02*
X52845D01*
X52782Y136000D01*
X49000D01*
X47500Y134500D01*
X31000D01*
G01X89000Y26457D02*
X71170D01*
X70170Y25457D01*
X67000D01*
G01X54937Y49000D02*
X79893D01*
X80893Y50000D01*
X84063D01*
G01X89000Y33543D02*
X71170D01*
X70170Y32543D01*
X67000D01*
G01X64937Y88063D02*
Y82044D01*
X64000Y81107D01*
Y77937D01*
G01X78000Y69937D02*
Y77000D01*
X74000Y81000D01*
Y87800D01*
G01X109795Y63000D02*
X101703D01*
X100766Y62063D01*
X78000D01*
G01X57063Y110000D02*
Y110985D01*
X59853Y113775D01*
X60784D01*
X72000Y124991D01*
Y128457D01*
G01X53100Y93900D02*
X68100D01*
X70200Y96000D01*
X74000D01*
G01D02*
Y106000D01*
X87063Y119063D01*
Y128000D01*
G01X64937Y110000D02*
Y98063D01*
G01X57000Y128063D02*
X62063D01*
X65000Y131000D01*
G01X57000Y135937D02*
X68436D01*
X68830Y135543D01*
X72000D01*
G01X91937Y50000D02*
Y54155D01*
X95782Y58000D01*
G01X91937Y50000D02*
Y43937D01*
X89000Y41000D01*
Y33543D01*
G01X102543Y92000D02*
Y82543D01*
X95782Y75782D01*
Y68782D01*
G01X95457Y92000D02*
Y86457D01*
X90000Y81000D01*
G01X94937Y128000D02*
Y114155D01*
X93937Y113155D01*
Y109000D01*
G01X104457Y116000D02*
Y97084D01*
X102543Y95170D01*
Y92000D01*
G01X82100Y91900D02*
X91891D01*
X91991Y92000D01*
X95457D01*
G01X82100Y91900D02*
Y104052D01*
X86063Y108015D01*
Y109000D01*
G01X120000Y127500D02*
X98607D01*
X98107Y128000D01*
X94937D01*
G01X84300Y134700D02*
X90100Y140500D01*
X120000D01*
G01X134205Y28000D02*
Y63000D01*
G01X109795Y28000D02*
Y63000D01*
G01X134205D02*
Y78080D01*
X132417Y79868D01*
X117132D01*
X112000Y85000D01*
Y103000D01*
X117000Y108000D01*
X122000D01*
G01X144000Y86000D02*
X132009D01*
X131765Y85756D01*
X126528D01*
G01X122000Y108000D02*
X126300Y112300D01*
Y136200D01*
X122000Y140500D01*
X120000D01*
G01X111543Y116000D02*
X118000D01*
G01X130000Y114000D02*
X131055Y112945D01*
Y108000D01*
G54D12*
X19063Y58000D03*
Y78000D03*
Y100000D03*
X26937Y58000D03*
X47063Y49000D03*
X26937Y78000D03*
Y100000D03*
X54937Y49000D03*
X64937Y110000D03*
X57063D03*
X91937Y50000D03*
X84063D03*
X93937Y109000D03*
X86063D03*
X94937Y128000D03*
X87063D03*
G54D13*
X48000Y26063D03*
Y33937D03*
X44000Y62063D03*
Y69937D03*
X64000Y70063D03*
Y77937D03*
X78000Y69937D03*
Y62063D03*
X57000Y135937D03*
Y128063D03*
G54D14*
X35000Y74000D03*
Y87000D03*
X64937Y88063D03*
Y98063D03*
X65000Y131000D03*
X95782Y58000D03*
Y68782D03*
X84300Y134700D03*
X118000Y116000D03*
X130000Y114000D03*
G54D15*
X45000Y98000D03*
Y89800D03*
X74000Y87800D03*
X53100Y93900D03*
X74000Y96000D03*
X82100Y91900D03*
G54D16*
X31000Y121500D03*
Y134500D03*
X120000Y127500D03*
Y140500D03*
G54D17*
X67000Y25457D03*
Y32543D03*
X72000Y128457D03*
Y135543D03*
X89000Y26457D03*
Y33543D03*
G54D18*
X109795Y28000D03*
Y63000D03*
X134205Y28000D03*
Y63000D03*
G54D19*
X126528Y85756D03*
M02*
